<svg width="20" height="20" viewBox="0 0 20 20" fill="none" xmlns="http://www.w3.org/2000/svg">
<path d="M18.2026 6.82173C18.1071 6.87744 15.8338 8.0531 15.8338 10.6598C15.941 13.6326 18.7026 14.6752 18.75 14.6752C18.7026 14.7309 18.3331 16.0954 17.2383 17.5257C16.3696 18.7578 15.4053 20 13.941 20C12.5481 20 12.0481 19.1788 10.441 19.1788C8.71504 19.1788 8.22668 20 6.90525 20C5.44096 20 4.40524 18.6912 3.48909 17.4707C2.29887 15.8732 1.28722 13.3664 1.25151 10.9593C1.22744 9.68384 1.48986 8.43004 2.15601 7.36507C3.09623 5.87831 4.77481 4.86905 6.60789 4.83577C8.01239 4.79164 9.2624 5.73434 10.1195 5.73434C10.941 5.73434 12.4767 4.83577 14.2143 4.83577C14.9643 4.83649 16.9643 5.04703 18.2026 6.82173ZM10.0008 4.5811C9.75075 3.41629 10.441 2.25148 11.0838 1.50846C11.9053 0.609897 13.2026 0 14.3214 0C14.3928 1.16481 13.9402 2.30719 13.1312 3.1392C12.4053 4.03777 11.1553 4.71422 10.0008 4.5811Z" fill="#1A1B27"/>
</svg>
