<svg width="21" height="20" viewBox="0 0 21 20" fill="none" xmlns="http://www.w3.org/2000/svg">
<path d="M20.0015 10.2226C20.0015 9.40033 19.9334 8.80031 19.786 8.17809H10.2053V11.8892H15.829C15.7156 12.8115 15.1034 14.2004 13.7428 15.1337L13.7237 15.258L16.753 17.5578L16.9628 17.5783C18.8903 15.8338 20.0015 13.2671 20.0015 10.2226Z" fill="#4285F4"/>
<path d="M10.2031 20.0005C12.9582 20.0005 15.2712 19.1115 16.9606 17.5782L13.7406 15.1336C12.8789 15.7225 11.7224 16.1336 10.2031 16.1336C7.50466 16.1336 5.21439 14.3892 4.39797 11.978L4.2783 11.9879L1.12846 14.3769L1.08727 14.4891C2.76528 17.7559 6.21207 20.0005 10.2031 20.0005Z" fill="#34A853"/>
<path d="M4.39915 11.9779C4.18373 11.3556 4.05905 10.6889 4.05905 10C4.05905 9.3111 4.18373 8.64444 4.38781 8.02222L4.38211 7.8897L1.19278 5.46237L1.08843 5.51101C0.396838 6.86662 0 8.3889 0 10C0 11.6112 0.396838 13.1334 1.08843 14.489L4.39915 11.9779Z" fill="#FBBC05"/>
<path d="M10.2032 3.86673C12.1193 3.86673 13.4118 4.67785 14.1488 5.35569L17.0287 2.60006C15.26 0.988915 12.9583 0 10.2032 0C6.2121 0 2.76529 2.24448 1.08727 5.51119L4.38665 8.0224C5.21441 5.61123 7.5047 3.86673 10.2032 3.86673Z" fill="#EB4335"/>
</svg>
