<svg width="121" height="20" viewBox="0 0 121 20" fill="none" xmlns="http://www.w3.org/2000/svg">
<path d="M19.2624 0.625001H25.4025L19.4176 19.375H13.2776L15.3833 12.8125H8.24582L6.14004 19.375H0L5.98487 0.625001H12.1249L9.86396 7.67857H17.0015L19.2624 0.625001Z" fill="#1A1B27"/>
<path d="M30.5904 20C27.8861 20 25.7803 19.3155 24.273 17.9464C22.7657 16.5774 22.0121 14.6875 22.0121 12.2768C22.0121 10.1339 22.581 8.125 23.7189 6.25C24.8567 4.375 26.4379 2.86458 28.4624 1.71875C30.5017 0.572916 32.7479 0 35.201 0C37.9052 0 40.011 0.684523 41.5183 2.05357C43.0256 3.42262 43.7793 5.3125 43.7793 7.72322C43.7793 9.86607 43.2103 11.875 42.0725 13.75C40.9346 15.625 39.346 17.1354 37.3067 18.2812C35.2822 19.4271 33.0434 20 30.5904 20ZM31.5879 14.6652C33.3168 14.6652 34.7502 14.0476 35.8881 12.8125C37.0407 11.5625 37.6318 10.1935 37.6614 8.70536C37.6614 7.61905 37.3289 6.78572 36.6639 6.20536C36.0137 5.625 35.1936 5.33482 34.2035 5.33482C32.4745 5.33482 31.0337 5.95982 29.8811 7.20982C28.7432 8.44494 28.1595 9.80655 28.1299 11.2946C28.1299 12.381 28.455 13.2143 29.1053 13.7946C29.7702 14.375 30.5978 14.6652 31.5879 14.6652Z" fill="#1A1B27"/>
<path d="M51.7525 20C49.0482 20 46.9425 19.3155 45.4352 17.9464C43.9279 16.5774 43.1742 14.6875 43.1742 12.2768C43.1742 10.1339 43.7431 8.125 44.881 6.25C46.0189 4.375 47.6001 2.86458 49.6246 1.71875C51.6639 0.572916 53.91 0 56.3631 0C59.0674 0 61.1732 0.684523 62.6805 2.05357C64.1878 3.42262 64.9414 5.3125 64.9414 7.72322C64.9414 9.86607 64.3725 11.875 63.2346 13.75C62.0967 15.625 60.5082 17.1354 58.4689 18.2812C56.4444 19.4271 54.2056 20 51.7525 20ZM52.75 14.6652C54.479 14.6652 55.9124 14.0476 57.0502 12.8125C58.2029 11.5625 58.794 10.1935 58.8235 8.70536C58.8235 7.61905 58.491 6.78572 57.8261 6.20536C57.1759 5.625 56.3557 5.33482 55.3656 5.33482C53.6367 5.33482 52.1958 5.95982 51.0432 7.20982C49.9053 8.44494 49.3216 9.80655 49.2921 11.2946C49.2921 12.381 49.6172 13.2143 50.2674 13.7946C50.9324 14.375 51.7599 14.6652 52.75 14.6652Z" fill="#1A1B27"/>
<path d="M87.2288 0.625001L77.2097 9.12946L83.1946 19.375H77.0767L72.8873 12.2098H72.3775L69.0747 14.8214L67.6117 19.375H61.4939L67.5674 0.625001H73.6853L71.5795 7.12054H72.3331L80.2021 0.625001H87.2288Z" fill="#1A1B27"/>
<path d="M103.13 5.55804H92.424L91.6482 7.96875H102.288L101.002 11.9196H90.3847L89.5646 14.442H100.249L98.6527 19.375H81.8508L87.8578 0.625001H104.726L103.13 5.55804Z" fill="#1A1B27"/>
<path d="M108.218 20C107.006 20 105.927 19.9256 104.982 19.7768C104.051 19.628 103.208 19.3899 102.455 19.0625C101.716 18.7351 101.162 18.311 100.792 17.7902C100.408 17.2545 100.171 16.6071 100.083 15.8482C99.9941 15.0744 100.142 14.1815 100.526 13.1696H105.735C105.587 13.8839 105.831 14.4122 106.467 14.7545C107.102 15.0967 107.974 15.2679 109.082 15.2679C110.264 15.2679 111.24 15.119 112.008 14.8214C112.791 14.5238 113.183 14.0699 113.183 13.4598C113.183 12.7009 112.466 12.2173 111.033 12.0089L109.548 11.7634C109.119 11.7039 108.794 11.6592 108.572 11.6295C108.351 11.5848 107.974 11.503 107.442 11.3839C106.91 11.2649 106.481 11.1384 106.156 11.0045C105.831 10.8705 105.44 10.6771 104.982 10.4241C104.538 10.1711 104.184 9.89583 103.918 9.59822C103.666 9.3006 103.445 8.92857 103.253 8.48214C103.06 8.02083 102.964 7.52232 102.964 6.98661C102.964 4.79911 103.895 3.0878 105.757 1.85268C107.634 0.617559 110.095 0 113.139 0C115.06 0 116.678 0.267857 117.993 0.803572C119.323 1.3244 120.224 2.09077 120.697 3.10268C121.17 4.0997 121.089 5.32738 120.454 6.78572H115.422C115.525 6.23512 115.318 5.75893 114.801 5.35714C114.299 4.94048 113.456 4.73214 112.274 4.73214C111.225 4.73214 110.383 4.89583 109.747 5.22321C109.127 5.5506 108.816 5.98958 108.816 6.54018C108.816 7.20982 109.407 7.64881 110.59 7.85714L111.676 8.05804C111.883 8.10268 112.245 8.16964 112.762 8.25893C113.279 8.34821 113.693 8.42262 114.003 8.48214C114.313 8.54167 114.72 8.63839 115.222 8.77232C115.725 8.90625 116.139 9.04018 116.464 9.17411C116.789 9.30804 117.136 9.50149 117.505 9.75447C117.89 9.99256 118.193 10.253 118.414 10.5357C118.636 10.8185 118.821 11.1607 118.968 11.5625C119.116 11.9643 119.19 12.4107 119.19 12.9018C119.19 14.1964 118.895 15.3125 118.303 16.25C117.727 17.1875 116.914 17.9241 115.865 18.4598C114.831 18.9955 113.678 19.3824 112.407 19.6205C111.151 19.8735 109.755 20 108.218 20Z" fill="#1A1B27"/>
</svg>
